STARTFONT 2.1
COMMENT
COMMENT Converted from OpenType font "SStock (2).ttf" by "otf2bdf 3.0".
COMMENT
FONT -FreeType-SStock-Medium-R-Normal--22-160-100-100-P-113-ISO10646-1
SIZE 16 100 100
FONTBOUNDINGBOX 22 23 -3 -6
STARTPROPERTIES 19
FOUNDRY "FreeType"
FAMILY_NAME "SStock"
WEIGHT_NAME "Medium"
SLANT "R"
SETWIDTH_NAME "Normal"
ADD_STYLE_NAME ""
PIXEL_SIZE 22
POINT_SIZE 160
RESOLUTION_X 100
RESOLUTION_Y 100
SPACING "P"
AVERAGE_WIDTH 113
CHARSET_REGISTRY "ISO10646"
CHARSET_ENCODING "1"
FONT_ASCENT 16
FONT_DESCENT 5
COPYRIGHT "ImBenji"
_OTF_FONTFILE "SStock (2).ttf"
_OTF_PSNAME "SStock"
ENDPROPERTIES
CHARS 74
STARTCHAR 0020
ENCODING 32
SWIDTH 315 0
DWIDTH 7 0
BBX 0 0 0 0
BITMAP
ENDCHAR
STARTCHAR 0021
ENCODING 33
SWIDTH 180 0
DWIDTH 4 0
BBX 2 18 -1 -1
BITMAP
C0
C0
C0
C0
C0
C0
C0
C0
C0
C0
C0
C0
C0
C0
00
00
C0
C0
ENDCHAR
STARTCHAR 0026
ENCODING 38
SWIDTH 810 0
DWIDTH 18 0
BBX 16 18 -1 -1
BITMAP
3F80
3F80
7FE0
70E0
70E0
70E0
7BE0
3F80
3F80
7F0E
F79E
F7FE
C3F8
C0F0
F3F8
F3F8
7F9E
3F0F
ENDCHAR
STARTCHAR 002C
ENCODING 44
SWIDTH 180 0
DWIDTH 4 0
BBX 2 5 -1 -4
BITMAP
C0
C0
40
40
80
ENDCHAR
STARTCHAR 002D
ENCODING 45
SWIDTH 315 0
DWIDTH 7 0
BBX 5 3 -1 3
BITMAP
F8
F8
F8
ENDCHAR
STARTCHAR 002E
ENCODING 46
SWIDTH 180 0
DWIDTH 4 0
BBX 2 2 -1 -1
BITMAP
C0
C0
ENDCHAR
STARTCHAR 002F
ENCODING 47
SWIDTH 450 0
DWIDTH 10 0
BBX 10 23 -3 -6
BITMAP
01C0
01C0
01C0
0380
0380
0380
0380
0E00
0E00
0E00
0E00
1E00
1C00
1C00
1C00
1C00
3000
3000
3000
3000
E000
E000
E000
ENDCHAR
STARTCHAR 0030
ENCODING 48
SWIDTH 630 0
DWIDTH 14 0
BBX 12 18 -1 -1
BITMAP
3F80
3F80
7FE0
70E0
70E0
C070
C070
C070
C070
C070
C070
C070
C070
C070
70E0
70E0
7FE0
3F80
ENDCHAR
STARTCHAR 0031
ENCODING 49
SWIDTH 315 0
DWIDTH 7 0
BBX 5 18 -1 -1
BITMAP
38
38
F8
F8
F8
38
38
38
38
38
38
38
38
38
38
38
38
38
ENDCHAR
STARTCHAR 0032
ENCODING 50
SWIDTH 540 0
DWIDTH 12 0
BBX 11 18 -1 -1
BITMAP
7F00
7F00
FF80
C3E0
C3E0
80E0
00E0
03E0
03E0
0780
0F00
3F00
3E00
7800
F000
F000
FFE0
FFE0
ENDCHAR
STARTCHAR 0033
ENCODING 51
SWIDTH 540 0
DWIDTH 12 0
BBX 11 18 -1 -1
BITMAP
FFE0
FFE0
FFE0
0380
0380
0700
0E00
3F80
3F80
03E0
00E0
00E0
00E0
00E0
83E0
83E0
FF80
7F00
ENDCHAR
STARTCHAR 0034
ENCODING 52
SWIDTH 630 0
DWIDTH 14 0
BBX 12 18 -1 -1
BITMAP
00E0
00E0
03E0
07E0
07E0
0FE0
3EE0
78E0
78E0
F0E0
C0E0
FFF0
FFF0
FFF0
00E0
00E0
00E0
00E0
ENDCHAR
STARTCHAR 0035
ENCODING 53
SWIDTH 630 0
DWIDTH 14 0
BBX 12 18 -1 -1
BITMAP
7FF0
7FF0
7FE0
7000
7000
7000
7FE0
7FF0
7FF0
40F0
0070
0070
0070
4070
F0F0
F0F0
7FE0
3F80
ENDCHAR
STARTCHAR 0036
ENCODING 54
SWIDTH 540 0
DWIDTH 12 0
BBX 11 18 -1 -1
BITMAP
07E0
07E0
0F80
3E00
3E00
7800
7000
FF00
FF00
FF80
F3E0
F3E0
C0E0
C0E0
F3E0
F3E0
7F80
3F00
ENDCHAR
STARTCHAR 0037
ENCODING 55
SWIDTH 630 0
DWIDTH 14 0
BBX 12 18 -1 -1
BITMAP
FFF0
FFF0
FFF0
00E0
00E0
00E0
03E0
0380
0380
0780
0700
0F00
0F00
0E00
3E00
3E00
3800
7800
ENDCHAR
STARTCHAR 0038
ENCODING 56
SWIDTH 540 0
DWIDTH 12 0
BBX 11 18 -1 -1
BITMAP
3F00
3F00
7F80
F3E0
F3E0
C0E0
C0E0
F3E0
F3E0
7F80
F3E0
F3E0
C0E0
C0E0
F3E0
F3E0
7F80
3F00
ENDCHAR
STARTCHAR 0039
ENCODING 57
SWIDTH 540 0
DWIDTH 12 0
BBX 11 18 -1 -1
BITMAP
3F00
3F00
7F80
F3E0
F3E0
C0E0
C0E0
F3E0
F3E0
7FE0
3FE0
3FE0
0380
0700
0E00
0E00
3800
7000
ENDCHAR
STARTCHAR 003A
ENCODING 58
SWIDTH 180 0
DWIDTH 4 0
BBX 2 11 -1 -1
BITMAP
C0
C0
C0
00
00
00
00
00
00
C0
C0
ENDCHAR
STARTCHAR 003B
ENCODING 59
SWIDTH 180 0
DWIDTH 4 0
BBX 2 14 -1 -4
BITMAP
C0
C0
C0
00
00
00
00
00
00
C0
C0
40
40
80
ENDCHAR
STARTCHAR 003F
ENCODING 63
SWIDTH 630 0
DWIDTH 14 0
BBX 12 18 -1 -1
BITMAP
3F80
3F80
7FE0
F0F0
F0F0
C070
0070
00F0
00F0
03E0
0780
0F80
0F00
0E00
0000
0000
0E00
0E00
ENDCHAR
STARTCHAR 0041
ENCODING 65
SWIDTH 765 0
DWIDTH 17 0
BBX 15 18 -1 -1
BITMAP
0780
0780
0780
0EE0
0EE0
0EE0
3870
3870
3870
3870
7018
7FF8
7FF8
7FF8
C00E
C00E
C00E
C00E
ENDCHAR
STARTCHAR 0042
ENCODING 66
SWIDTH 630 0
DWIDTH 14 0
BBX 12 18 -1 -1
BITMAP
FF00
FF00
FF80
C3E0
C3E0
C0E0
C3E0
FF80
FF80
FFE0
C0F0
C0F0
C070
C070
C0F0
C0F0
FFE0
FF80
ENDCHAR
STARTCHAR 0043
ENCODING 67
SWIDTH 765 0
DWIDTH 17 0
BBX 15 18 -1 -1
BITMAP
07F0
07F0
3FFE
780E
780E
7000
C000
C000
C000
C000
C000
C000
C000
7000
780E
780E
3FFE
07F0
ENDCHAR
STARTCHAR 0044
ENCODING 68
SWIDTH 765 0
DWIDTH 17 0
BBX 15 18 -1 -1
BITMAP
FF80
FF80
FFF0
C078
C078
C018
C00E
C00E
C00E
C00E
C00E
C00E
C00E
C018
C078
C078
FFF0
FF80
ENDCHAR
STARTCHAR 0045
ENCODING 69
SWIDTH 540 0
DWIDTH 12 0
BBX 11 18 -1 -1
BITMAP
FFE0
FFE0
FFE0
C000
C000
C000
C000
FF80
FF80
FF80
C000
C000
C000
C000
C000
C000
FFE0
FFE0
ENDCHAR
STARTCHAR 0046
ENCODING 70
SWIDTH 540 0
DWIDTH 12 0
BBX 11 18 -1 -1
BITMAP
FFE0
FFE0
FFE0
C000
C000
C000
C000
FF80
FF80
FF80
C000
C000
C000
C000
C000
C000
C000
C000
ENDCHAR
STARTCHAR 0047
ENCODING 71
SWIDTH 765 0
DWIDTH 17 0
BBX 15 18 -1 -1
BITMAP
07F0
07F0
3FFE
781E
781E
7000
C000
C000
C000
C0FE
C0FE
C0FE
C00E
700E
780E
780E
3FFE
07F0
ENDCHAR
STARTCHAR 0048
ENCODING 72
SWIDTH 630 0
DWIDTH 14 0
BBX 12 18 -1 -1
BITMAP
C070
C070
C070
C070
C070
C070
C070
FFF0
FFF0
FFF0
C070
C070
C070
C070
C070
C070
C070
C070
ENDCHAR
STARTCHAR 0049
ENCODING 73
SWIDTH 180 0
DWIDTH 4 0
BBX 2 18 -1 -1
BITMAP
C0
C0
C0
C0
C0
C0
C0
C0
C0
C0
C0
C0
C0
C0
C0
C0
C0
C0
ENDCHAR
STARTCHAR 004A
ENCODING 74
SWIDTH 630 0
DWIDTH 14 0
BBX 12 18 -1 -1
BITMAP
0070
0070
0070
0070
0070
0070
0070
0070
0070
0070
0070
0070
0070
4070
F0F0
F0F0
7FE0
3F80
ENDCHAR
STARTCHAR 004B
ENCODING 75
SWIDTH 765 0
DWIDTH 17 0
BBX 15 18 -1 -1
BITMAP
C078
C078
C0F0
C3E0
C3E0
C780
CF00
FE00
FE00
FE00
CF00
CF80
C780
C3E0
C0F0
C0F0
C078
C01E
ENDCHAR
STARTCHAR 004C
ENCODING 76
SWIDTH 540 0
DWIDTH 12 0
BBX 11 18 -1 -1
BITMAP
C000
C000
C000
C000
C000
C000
C000
C000
C000
C000
C000
C000
C000
C000
C000
C000
FFE0
FFE0
ENDCHAR
STARTCHAR 004D
ENCODING 77
SWIDTH 855 0
DWIDTH 19 0
BBX 18 18 -1 -1
BITMAP
C001C0
C001C0
F007C0
F80FC0
F80FC0
FE1FC0
CF79C0
C7F1C0
C7F1C0
C3E1C0
C081C0
C081C0
C001C0
C001C0
C001C0
C001C0
C001C0
C001C0
ENDCHAR
STARTCHAR 004E
ENCODING 78
SWIDTH 810 0
DWIDTH 18 0
BBX 16 18 -1 -1
BITMAP
C007
C007
C007
F007
F007
F807
FE07
CF07
CF07
C787
C3E7
C3F7
C0F7
C07F
C01F
C01F
C00F
C007
ENDCHAR
STARTCHAR 004F
ENCODING 79
SWIDTH 855 0
DWIDTH 19 0
BBX 18 18 -1 -1
BITMAP
07F000
07F000
3FFE00
780F00
780F00
F007C0
C001C0
C001C0
C001C0
C001C0
C001C0
C001C0
C001C0
F007C0
780F00
780F00
3FFE00
07F000
ENDCHAR
STARTCHAR 0050
ENCODING 80
SWIDTH 630 0
DWIDTH 14 0
BBX 12 18 -1 -1
BITMAP
FF80
FF80
FFE0
C0F0
C0F0
C070
C070
C0F0
C0F0
FFE0
FF80
FF80
C000
C000
C000
C000
C000
C000
ENDCHAR
STARTCHAR 0051
ENCODING 81
SWIDTH 945 0
DWIDTH 21 0
BBX 19 18 -1 -1
BITMAP
07F000
07F000
3FFE00
780F00
780F00
F007C0
C001C0
C001C0
C001C0
C001C0
C001C0
C019C0
C019C0
F01FC0
780F00
780F00
3FFFC0
07F1E0
ENDCHAR
STARTCHAR 0052
ENCODING 82
SWIDTH 675 0
DWIDTH 15 0
BBX 13 18 -1 -1
BITMAP
FF80
FF80
FFE0
C0F0
C0F0
C070
C0F0
FFE0
FFE0
FF80
C380
C3E0
C3E0
C0E0
C0F0
C0F0
C070
C078
ENDCHAR
STARTCHAR 0053
ENCODING 83
SWIDTH 630 0
DWIDTH 14 0
BBX 12 18 -1 -1
BITMAP
0F80
0F80
3FE0
7880
7880
7000
7800
3F00
3F00
07E0
00F0
00F0
0070
4070
F0F0
F0F0
7FE0
3F80
ENDCHAR
STARTCHAR 0054
ENCODING 84
SWIDTH 675 0
DWIDTH 15 0
BBX 13 18 -1 -1
BITMAP
FFF8
FFF8
FFF8
0700
0700
0700
0700
0700
0700
0700
0700
0700
0700
0700
0700
0700
0700
0700
ENDCHAR
STARTCHAR 0055
ENCODING 85
SWIDTH 765 0
DWIDTH 17 0
BBX 15 18 -1 -1
BITMAP
C00E
C00E
C00E
C00E
C00E
C00E
C00E
C00E
C00E
C00E
C00E
C00E
C00E
F01E
7878
7878
3FF0
0FE0
ENDCHAR
STARTCHAR 0056
ENCODING 86
SWIDTH 765 0
DWIDTH 17 0
BBX 15 18 -1 -1
BITMAP
C00E
C00E
C00E
7018
7018
7018
7018
3870
3870
3870
3870
3EF0
0EE0
0EE0
0EE0
0EE0
0780
0780
ENDCHAR
STARTCHAR 0057
ENCODING 87
SWIDTH 855 0
DWIDTH 19 0
BBX 18 18 -1 -1
BITMAP
C001C0
C001C0
C001C0
C3E1C0
C3E1C0
73E700
77F700
777700
777700
777700
777700
777700
777700
3E1E00
3E1E00
3E1E00
3E1E00
3E1E00
ENDCHAR
STARTCHAR 0058
ENCODING 88
SWIDTH 630 0
DWIDTH 14 0
BBX 12 18 -1 -1
BITMAP
C070
C070
F070
70F0
70F0
7BE0
3F80
0F80
0F80
0F00
0F00
3F80
3F80
7BE0
70E0
70E0
F0F0
C070
ENDCHAR
STARTCHAR 0059
ENCODING 89
SWIDTH 810 0
DWIDTH 18 0
BBX 16 18 -1 -1
BITMAP
F00F
F00F
781E
3818
3818
3E78
0FF0
07E0
07E0
0380
0380
0380
0380
0380
0380
0380
0380
0380
ENDCHAR
STARTCHAR 005A
ENCODING 90
SWIDTH 675 0
DWIDTH 15 0
BBX 13 18 -1 -1
BITMAP
FFF8
FFF8
FFF0
00F0
00F0
03E0
0380
0780
0780
0F00
0E00
3E00
3E00
7800
7000
7000
FFF0
FFF8
ENDCHAR
STARTCHAR 005F
ENCODING 95
SWIDTH 540 0
DWIDTH 12 0
BBX 11 3 -1 -4
BITMAP
FFE0
FFE0
FFE0
ENDCHAR
STARTCHAR 0061
ENCODING 97
SWIDTH 540 0
DWIDTH 12 0
BBX 11 13 -1 -1
BITMAP
7F00
FF80
80E0
80E0
0FE0
7FE0
FFE0
F060
C060
C060
C060
FFE0
7EE0
ENDCHAR
STARTCHAR 0062
ENCODING 98
SWIDTH 630 0
DWIDTH 14 0
BBX 12 18 -1 -1
BITMAP
C000
C000
C000
C000
C000
C000
CF80
FFE0
FFE0
F0F0
C070
C070
C070
C070
F0F0
F0F0
FFE0
CF80
ENDCHAR
STARTCHAR 0063
ENCODING 99
SWIDTH 540 0
DWIDTH 12 0
BBX 11 13 -1 -1
BITMAP
3F80
7FE0
F0E0
F0E0
C000
C000
C000
C000
C000
F0E0
F0E0
7FE0
3F80
ENDCHAR
STARTCHAR 0064
ENCODING 100
SWIDTH 630 0
DWIDTH 14 0
BBX 12 18 -1 -1
BITMAP
0070
0070
0070
0070
0070
3F70
7FF0
F0F0
F0F0
C070
C070
C070
C070
C070
F070
F070
7FF0
3F70
ENDCHAR
STARTCHAR 0065
ENCODING 101
SWIDTH 540 0
DWIDTH 12 0
BBX 11 13 -1 -1
BITMAP
3F00
7F80
F3E0
F3E0
C0E0
FFE0
FFE0
FFE0
C000
F060
F060
7FE0
3F80
ENDCHAR
STARTCHAR 0066
ENCODING 102
SWIDTH 450 0
DWIDTH 10 0
BBX 8 18 -1 -1
BITMAP
3F
3F
7F
70
70
FF
FF
70
70
70
70
70
70
70
70
70
70
70
ENDCHAR
STARTCHAR 0067
ENCODING 103
SWIDTH 540 0
DWIDTH 12 0
BBX 11 18 -1 -6
BITMAP
3FE0
7FE0
7380
7380
7380
7F80
7F80
3F00
7000
3F00
3F00
7F80
C0E0
C0E0
C0E0
FFE0
7F80
7F80
ENDCHAR
STARTCHAR 0068
ENCODING 104
SWIDTH 540 0
DWIDTH 12 0
BBX 11 18 -1 -1
BITMAP
C000
C000
C000
C000
C000
CF00
FF80
F3E0
F3E0
C0E0
C0E0
C0E0
C0E0
C0E0
C0E0
C0E0
C0E0
C0E0
ENDCHAR
STARTCHAR 0069
ENCODING 105
SWIDTH 180 0
DWIDTH 4 0
BBX 2 18 -1 -1
BITMAP
C0
C0
C0
00
00
C0
C0
C0
C0
C0
C0
C0
C0
C0
C0
C0
C0
C0
ENDCHAR
STARTCHAR 006A
ENCODING 106
SWIDTH 630 0
DWIDTH 14 0
BBX 6 23 5 -6
BITMAP
1C
1C
1C
00
00
1C
1C
1C
1C
1C
1C
1C
1C
1C
1C
1C
1C
1C
1C
1C
FC
F8
F8
ENDCHAR
STARTCHAR 006B
ENCODING 107
SWIDTH 630 0
DWIDTH 14 0
BBX 12 18 -1 -1
BITMAP
C000
C000
C000
C000
C000
C3E0
C780
CF00
CF00
FE00
F800
FE00
FE00
CF00
C780
C780
C3E0
C0F0
ENDCHAR
STARTCHAR 006C
ENCODING 108
SWIDTH 315 0
DWIDTH 7 0
BBX 5 18 -1 -1
BITMAP
C0
C0
C0
C0
C0
C0
C0
C0
C0
C0
C0
C0
C0
C0
C0
C0
F8
78
ENDCHAR
STARTCHAR 006D
ENCODING 109
SWIDTH 810 0
DWIDTH 18 0
BBX 16 13 -1 -1
BITMAP
CF7E
FFFF
C387
C387
C387
C387
C387
C387
C387
C387
C387
C387
C387
ENDCHAR
STARTCHAR 006E
ENCODING 110
SWIDTH 540 0
DWIDTH 12 0
BBX 11 13 -1 -1
BITMAP
CF00
FF80
F3E0
F3E0
C0E0
C0E0
C0E0
C0E0
C0E0
C0E0
C0E0
C0E0
C0E0
ENDCHAR
STARTCHAR 006F
ENCODING 111
SWIDTH 675 0
DWIDTH 15 0
BBX 13 13 -1 -1
BITMAP
3FE0
7FF0
F078
F078
C018
C018
C018
C018
C018
F078
F078
7FF0
3FE0
ENDCHAR
STARTCHAR 0070
ENCODING 112
SWIDTH 630 0
DWIDTH 14 0
BBX 12 18 -1 -6
BITMAP
CF80
FFE0
F0F0
F0F0
C070
C070
C070
C070
C070
F0F0
F0F0
FFE0
CF80
C000
C000
C000
C000
C000
ENDCHAR
STARTCHAR 0071
ENCODING 113
SWIDTH 630 0
DWIDTH 14 0
BBX 12 18 -1 -6
BITMAP
3F70
7FF0
F0F0
F0F0
C070
C070
C070
C070
C070
F0F0
F0F0
7FF0
3F70
0070
0070
0070
0070
0070
ENDCHAR
STARTCHAR 0072
ENCODING 114
SWIDTH 360 0
DWIDTH 8 0
BBX 7 13 -1 -1
BITMAP
CE
FE
F0
F0
C0
C0
C0
C0
C0
C0
C0
C0
C0
ENDCHAR
STARTCHAR 0073
ENCODING 115
SWIDTH 495 0
DWIDTH 11 0
BBX 9 13 -1 -1
BITMAP
7F00
FF80
C080
C080
C000
FF00
FF80
7F80
0380
8380
8380
FF80
7F00
ENDCHAR
STARTCHAR 0074
ENCODING 116
SWIDTH 450 0
DWIDTH 10 0
BBX 8 16 -1 -1
BITMAP
70
70
70
FF
FF
70
70
70
70
70
70
70
70
70
7F
3F
ENDCHAR
STARTCHAR 0075
ENCODING 117
SWIDTH 540 0
DWIDTH 12 0
BBX 11 13 -1 -1
BITMAP
C0E0
C0E0
C0E0
C0E0
C0E0
C0E0
C0E0
C0E0
C0E0
F3E0
F3E0
7FE0
3EE0
ENDCHAR
STARTCHAR 0076
ENCODING 118
SWIDTH 630 0
DWIDTH 14 0
BBX 12 13 -1 -1
BITMAP
C070
C070
70E0
70E0
70E0
70E0
7BE0
3B80
3B80
3B80
3B80
0F00
0F00
ENDCHAR
STARTCHAR 0077
ENCODING 119
SWIDTH 990 0
DWIDTH 22 0
BBX 20 13 -1 -1
BITMAP
C06070
C06070
70F0E0
70F0E0
70F0E0
70F0E0
7BF9E0
3B99C0
3B99C0
3B99C0
3B99C0
0F0F00
0F0F00
ENDCHAR
STARTCHAR 0078
ENCODING 120
SWIDTH 495 0
DWIDTH 11 0
BBX 9 13 -1 -1
BITMAP
C380
C380
7700
7700
7700
3E00
3E00
3E00
7700
7700
7700
C380
C380
ENDCHAR
STARTCHAR 0079
ENCODING 121
SWIDTH 630 0
DWIDTH 14 0
BBX 12 18 -1 -6
BITMAP
C070
C070
70E0
70E0
70E0
70E0
7BE0
3B80
3B80
3B80
3B80
0F00
0F00
0E00
0E00
FE00
F800
F800
ENDCHAR
STARTCHAR 007A
ENCODING 122
SWIDTH 540 0
DWIDTH 12 0
BBX 11 14 -1 0
BITMAP
FFE0
FFE0
FF80
0700
0700
0700
0E00
3800
3800
3800
7000
FFE0
FFE0
FFE0
ENDCHAR
STARTCHAR 00A0
ENCODING 160
SWIDTH 315 0
DWIDTH 7 0
BBX 0 0 0 0
BITMAP
ENDCHAR
ENDFONT
